<svg width="180" height="33" viewBox="0 0 180 33" fill="none" xmlns="http://www.w3.org/2000/svg">
    <g clip-path="url(#clip0_797_171824)">
        <path
            d="M53.6402 26.5644L56.8084 27.5219C56.6348 28.3262 56.2931 29.0847 55.8058 29.7477C55.3606 30.3338 54.7742 30.7977 54.1014 31.0962C53.2793 31.4266 52.3975 31.5819 51.5121 31.5524C50.2388 31.5524 49.1994 31.3678 48.394 30.9985C47.5216 30.5675 46.7954 29.8893 46.306 29.0484C45.7211 28.1159 45.4287 26.9245 45.4287 25.474C45.4287 23.539 45.9434 22.0509 46.9727 21.0099C48.0021 19.9688 49.4592 19.4491 51.3442 19.4508C52.818 19.4508 53.9769 19.7491 54.8207 20.3456C55.6646 20.9422 56.2912 21.8613 56.7006 23.1028L53.5073 23.8147C53.4306 23.5378 53.3123 23.2741 53.1564 23.0327C52.9607 22.7623 52.7028 22.5431 52.4044 22.3935C51.9136 22.1595 51.3554 22.1079 50.83 22.2479C50.3045 22.388 49.8461 22.7106 49.5369 23.158C49.2086 23.6468 49.0356 24.4113 49.0356 25.4615C49.0356 26.7599 49.232 27.6489 49.6247 28.1285C49.8269 28.3693 50.0822 28.5598 50.3706 28.6851C50.659 28.8103 50.9725 28.8669 51.2865 28.8504C51.9783 28.8504 52.4997 28.6573 52.8556 28.2688C53.2626 27.7797 53.5332 27.1917 53.6402 26.5644Z"
            fill="#0080FF" />
        <path
            d="M57.3848 19.6514H61.3952L63.7539 23.5992L66.1151 19.6514H70.1105L65.5611 26.4516V31.3519H61.9417V26.4516L57.3848 19.6514Z"
            fill="#0080FF" />
        <path
            d="M71.2886 19.6514H78.0562C79.1859 19.6514 80.0523 19.9304 80.6555 20.4886C80.9473 20.7488 81.1794 21.0689 81.336 21.4271C81.4926 21.7853 81.57 22.1731 81.5629 22.564C81.577 23.2171 81.3464 23.8519 80.9162 24.3436C80.5738 24.7091 80.1417 24.9787 79.6629 25.1257C80.4985 25.3295 81.1176 25.6771 81.5203 26.1684C81.929 26.6982 82.1392 27.3545 82.1143 28.0232C82.1234 28.597 81.977 29.1626 81.6907 29.66C81.414 30.1398 81.0143 30.5369 80.5327 30.8105C80.1038 31.0231 79.6387 31.1532 79.1616 31.194C78.6241 31.2741 78.0828 31.3268 77.5399 31.3519H71.2986L71.2886 19.6514ZM74.9356 24.2434H76.5097C77.0737 24.2434 77.4647 24.1456 77.6853 23.9526C77.7992 23.8452 77.8881 23.7141 77.9457 23.5686C78.0033 23.4231 78.0282 23.2666 78.0186 23.1104C78.0264 22.9607 78.0005 22.8111 77.9428 22.6727C77.8851 22.5344 77.7971 22.4107 77.6853 22.3108C77.4647 22.1203 77.0812 22.0251 76.5323 22.0251H74.9356V24.2434ZM74.9356 28.8404H76.7804C77.402 28.8404 77.8407 28.7301 78.0964 28.5095C78.2231 28.3996 78.3234 28.2625 78.3898 28.1084C78.4562 27.9543 78.487 27.7873 78.4799 27.6197C78.4855 27.4608 78.4542 27.3027 78.3885 27.1579C78.3229 27.0131 78.2246 26.8855 78.1014 26.785C77.849 26.5744 77.4062 26.4692 76.7729 26.4692H74.9356V28.8404Z"
            fill="#0080FF" />
        <path
            d="M83.9893 19.6514H93.6796V22.1579H87.6112V24.0178H93.2384V26.404H87.6112V28.71H93.855V31.3594H83.9893V19.6514Z"
            fill="#0080FF" />
        <path
            d="M95.8501 31.3519V19.6514H101.866C102.729 19.6202 103.592 19.7165 104.427 19.9371C105.01 20.1232 105.513 20.4991 105.856 21.0049C106.115 21.3758 106.295 21.796 106.385 22.2394C106.475 22.6827 106.473 23.1398 106.379 23.5823C106.285 24.0248 106.101 24.4433 105.839 24.8118C105.576 25.1803 105.241 25.4911 104.854 25.7247C104.457 25.9446 104.028 26.101 103.583 26.1884C103.916 26.2862 104.233 26.4314 104.525 26.6196C104.74 26.8015 104.934 27.0075 105.102 27.2337C105.291 27.4599 105.459 27.7033 105.603 27.9606L107.358 31.3519H103.272L101.339 27.7776C101.185 27.4352 100.963 27.128 100.685 26.8752C100.425 26.6948 100.115 26.6002 99.7979 26.6045H99.4821V31.3519H95.8501ZM99.4821 24.3912H101.006C101.329 24.3669 101.65 24.3141 101.964 24.2333C102.199 24.1892 102.408 24.0575 102.55 23.8649C102.701 23.6719 102.782 23.4331 102.778 23.1881C102.788 23.0251 102.761 22.8619 102.699 22.7109C102.637 22.5598 102.541 22.4248 102.42 22.3158C102.169 22.1153 101.73 22.0125 101.071 22.0125H99.4821V24.3912Z"
            fill="#0080FF" />
        <path
            d="M108.17 25.632C108.17 22.2807 110.722 19.8118 114.171 19.8118C115.85 19.8118 117.354 20.3682 118.357 21.4861L117.587 22.2381C117.147 21.7902 116.62 21.4382 116.037 21.2043C115.455 20.9705 114.83 20.8599 114.203 20.8796C111.446 20.8796 109.363 22.9074 109.363 25.6219C109.363 28.3365 111.441 30.3618 114.203 30.3618C114.832 30.3826 115.458 30.2711 116.041 30.0344C116.624 29.7978 117.151 29.4414 117.587 28.9882L118.357 29.7577C117.354 30.8681 115.85 31.4396 114.156 31.4396C110.722 31.4497 108.17 28.9832 108.17 25.632Z"
            fill="#0080FF" />
        <path
            d="M127.819 28.2964H121.445L120.071 31.3519H118.818L124.049 19.9095H125.242L130.473 31.3519H129.197L127.819 28.2964ZM127.38 27.3139L124.623 21.1678L121.866 27.3139H127.38Z"
            fill="#0080FF" />
        <path
            d="M144.249 19.9095V31.3519H143.089V22.198L138.592 29.8981H138.02L133.526 22.2381V31.3419H132.366V19.9095H133.368L138.339 28.3942L143.259 19.9095H144.249Z"
            fill="#0080FF" />
        <path
            d="M156.935 23.8323C156.935 26.2687 155.18 27.74 152.26 27.74H149.187V31.3519H147.977V19.9095H152.26C155.17 19.9095 156.935 21.3809 156.935 23.8323ZM155.724 23.8323C155.724 22.0025 154.516 20.9573 152.215 20.9573H149.187V26.6772H152.228C154.516 26.6772 155.724 25.632 155.724 23.8323Z"
            fill="#0080FF" />
        <path
            d="M159.534 26.4642V19.9095H160.745V26.4266C160.745 29.1386 162.018 30.3819 164.241 30.3819C166.465 30.3819 167.751 29.1286 167.751 26.4266V19.9095H168.929V26.4642C168.929 29.7502 167.174 31.4497 164.236 31.4497C161.299 31.4497 159.534 29.7578 159.534 26.4642Z"
            fill="#0080FF" />
        <path
            d="M171.495 29.9633L171.969 29.0308C172.786 29.8329 174.24 30.422 175.744 30.422C177.884 30.422 178.817 29.5221 178.817 28.3942C178.817 25.256 171.771 27.1835 171.771 22.9499C171.771 21.2656 173.079 19.8118 175.989 19.8118C177.244 19.7947 178.476 20.1431 179.536 20.8144L179.128 21.7794C178.192 21.1734 177.104 20.8449 175.989 20.8319C173.896 20.8319 172.964 21.7644 172.964 22.9073C172.964 26.0455 180.01 24.1606 180.01 28.319C180.01 30.0034 178.669 31.4396 175.749 31.4396C174.017 31.4496 172.335 30.8456 171.495 29.9633Z"
            fill="#0080FF" />
        <path
            d="M28.2085 0.819702L54.8681 13.5204L41.5383 19.8143V31.5951C41.5383 31.5951 37.3047 28.7902 33.8156 28.2187C30.3265 27.6473 28.2085 27.532 28.2085 27.532V0.819702Z"
            stroke="#007AF2" stroke-width="0.250654" stroke-miterlimit="10" />
        <path d="M31.8706 11.9763L47.3961 17.0495L41.3103 7.06093L41.5383 14.7209L36.5929 4.81506L31.8706 11.9763Z"
            stroke="#007AF2" stroke-width="0.250654" stroke-miterlimit="10" />
        <path d="M30.7828 13.1769L27.9805 9.68779L36.593 4.81506" stroke="#007AF2" stroke-width="0.250654"
            stroke-miterlimit="10" />
        <path d="M35.4151 16.1873L33.8159 28.2237" stroke="#007AF2" stroke-width="0.250654" stroke-miterlimit="10" />
        <path d="M28.2085 23.2181L41.5383 26.3914" stroke="#007AF2" stroke-width="0.250654" stroke-miterlimit="10" />
        <path d="M30.7827 13.1769L41.5383 26.3914" stroke="#007AF2" stroke-width="0.250654" stroke-miterlimit="10" />
        <path d="M28.2085 0.819702L41.5383 21.1302" stroke="#007AF2" stroke-width="0.250654" stroke-miterlimit="10" />
        <path d="M27.9805 17.047L54.8682 13.5203" stroke="#007AF2" stroke-width="0.250654" stroke-miterlimit="10" />
        <path d="M46.6016 9.58252L47.3961 17.2952" stroke="#007AF2" stroke-width="0.250654" stroke-miterlimit="10" />
        <path d="M41.5386 14.7209L46.6018 9.58252" stroke="#007AF2" stroke-width="0.250654" stroke-miterlimit="10" />
        <path d="M28.2085 27.5369L41.5383 21.1301" stroke="#007AF2" stroke-width="0.250654" stroke-miterlimit="10" />
        <path d="M28.2085 23.2182L35.9111 16.0068" stroke="#007AF2" stroke-width="0.250654" stroke-miterlimit="10" />
        <path d="M28.2085 17.2952L41.5383 31.5975" stroke="#007AF2" stroke-width="0.250654" stroke-miterlimit="10" />
        <path d="M41.5386 14.7209V21.1302" stroke="#007AF2" stroke-width="0.250654" stroke-miterlimit="10" />
        <path d="M27.9805 15.7136L31.8706 11.9763" stroke="#007AF2" stroke-width="0.250654" stroke-miterlimit="10" />
        <path
            d="M54.8685 14.3224C55.3115 14.3224 55.6706 13.9633 55.6706 13.5204C55.6706 13.0774 55.3115 12.7183 54.8685 12.7183C54.4255 12.7183 54.0664 13.0774 54.0664 13.5204C54.0664 13.9633 54.4255 14.3224 54.8685 14.3224Z"
            fill="#0080FF" />
        <path
            d="M47.3963 18.0972C47.8393 18.0972 48.1984 17.7381 48.1984 17.2951C48.1984 16.8522 47.8393 16.493 47.3963 16.493C46.9533 16.493 46.5942 16.8522 46.5942 17.2951C46.5942 17.7381 46.9533 18.0972 47.3963 18.0972Z"
            fill="#0080FF" />
        <path
            d="M41.4256 21.9849C41.8686 21.9849 42.2277 21.6258 42.2277 21.1828C42.2277 20.7398 41.8686 20.3807 41.4256 20.3807C40.9826 20.3807 40.6235 20.7398 40.6235 21.1828C40.6235 21.6258 40.9826 21.9849 41.4256 21.9849Z"
            fill="#0080FF" />
        <path
            d="M47.1131 15.34C47.5561 15.34 47.9152 14.9809 47.9152 14.5379C47.9152 14.0949 47.5561 13.7358 47.1131 13.7358C46.6701 13.7358 46.311 14.0949 46.311 14.5379C46.311 14.9809 46.6701 15.34 47.1131 15.34Z"
            fill="#0080FF" />
        <path
            d="M27.9803 24.0202C28.4233 24.0202 28.7824 23.6611 28.7824 23.2181C28.7824 22.7751 28.4233 22.416 27.9803 22.416C27.5373 22.416 27.1782 22.7751 27.1782 23.2181C27.1782 23.6611 27.5373 24.0202 27.9803 24.0202Z"
            fill="#0080FF" />
        <path
            d="M28.349 28.344C28.8654 28.344 29.2839 27.9254 29.2839 27.4091C29.2839 26.8927 28.8654 26.4741 28.349 26.4741C27.8326 26.4741 27.4141 26.8927 27.4141 27.4091C27.4141 27.9254 27.8326 28.344 28.349 28.344Z"
            fill="#0080FF" />
        <path
            d="M41.5385 32.2868C42.0548 32.2868 42.4734 31.8682 42.4734 31.3518C42.4734 30.8355 42.0548 30.4169 41.5385 30.4169C41.0221 30.4169 40.6035 30.8355 40.6035 31.3518C40.6035 31.8682 41.0221 32.2868 41.5385 32.2868Z"
            fill="#0080FF" />
        <path
            d="M41.5385 27.1885C42.0548 27.1885 42.4734 26.7699 42.4734 26.2535C42.4734 25.7372 42.0548 25.3186 41.5385 25.3186C41.0221 25.3186 40.6035 25.7372 40.6035 26.2535C40.6035 26.7699 41.0221 27.1885 41.5385 27.1885Z"
            fill="#0080FF" />
        <path
            d="M41.4257 16.2199C41.942 16.2199 42.3606 15.8013 42.3606 15.2849C42.3606 14.7686 41.942 14.35 41.4257 14.35C40.9093 14.35 40.4907 14.7686 40.4907 15.2849C40.4907 15.8013 40.9093 16.2199 41.4257 16.2199Z"
            fill="#0080FF" stroke="#007AF2" stroke-width="0.250654" stroke-miterlimit="10" />
        <path
            d="M34.0512 29.0634C34.4347 29.0634 34.7456 28.7526 34.7456 28.3691C34.7456 27.9857 34.4347 27.6748 34.0512 27.6748C33.6678 27.6748 33.3569 27.9857 33.3569 28.3691C33.3569 28.7526 33.6678 29.0634 34.0512 29.0634Z"
            fill="#0080FF" />
        <path
            d="M28.2085 17.9895C28.5919 17.9895 28.9028 17.6786 28.9028 17.2951C28.9028 16.9117 28.5919 16.6008 28.2085 16.6008C27.825 16.6008 27.5142 16.9117 27.5142 17.2951C27.5142 17.6786 27.825 17.9895 28.2085 17.9895Z"
            fill="#0080FF" />
        <path
            d="M46.8022 10.2718C47.1857 10.2718 47.4965 9.96095 47.4965 9.57749C47.4965 9.19403 47.1857 8.88318 46.8022 8.88318C46.4188 8.88318 46.1079 9.19403 46.1079 9.57749C46.1079 9.96095 46.4188 10.2718 46.8022 10.2718Z"
            fill="#0080FF" />
        <path
            d="M41.4258 7.73274C41.8092 7.73274 42.1201 7.42189 42.1201 7.03843C42.1201 6.65497 41.8092 6.34412 41.4258 6.34412C41.0423 6.34412 40.7314 6.65497 40.7314 7.03843C40.7314 7.42189 41.0423 7.73274 41.4258 7.73274Z"
            fill="#0080FF" />
        <path
            d="M36.7182 5.50935C37.1017 5.50935 37.4125 5.1985 37.4125 4.81504C37.4125 4.43158 37.1017 4.12073 36.7182 4.12073C36.3348 4.12073 36.0239 4.43158 36.0239 4.81504C36.0239 5.1985 36.3348 5.50935 36.7182 5.50935Z"
            fill="#0080FF" />
        <path
            d="M28.1284 1.38863C28.5119 1.38863 28.8227 1.07777 28.8227 0.694313C28.8227 0.310854 28.5119 0 28.1284 0C27.7449 0 27.4341 0.310854 27.4341 0.694313C27.4341 1.07777 27.7449 1.38863 28.1284 1.38863Z"
            fill="#0080FF" />
        <path
            d="M35.9111 16.9041C36.2946 16.9041 36.6054 16.5933 36.6054 16.2098C36.6054 15.8264 36.2946 15.5155 35.9111 15.5155C35.5277 15.5155 35.2168 15.8264 35.2168 16.2098C35.2168 16.5933 35.5277 16.9041 35.9111 16.9041Z"
            fill="#0178EF" />
        <path
            d="M27.9806 16.2073C28.2533 16.2073 28.4744 15.9862 28.4744 15.7135C28.4744 15.4408 28.2533 15.2197 27.9806 15.2197C27.7079 15.2197 27.4868 15.4408 27.4868 15.7135C27.4868 15.9862 27.7079 16.2073 27.9806 16.2073Z"
            fill="#0080FF" />
        <path
            d="M31.1564 20.9522C31.4291 20.9522 31.6502 20.7311 31.6502 20.4584C31.6502 20.1857 31.4291 19.9646 31.1564 19.9646C30.8837 19.9646 30.6626 20.1857 30.6626 20.4584C30.6626 20.7311 30.8837 20.9522 31.1564 20.9522Z"
            stroke="#007AF2" stroke-width="0.250654" stroke-miterlimit="10" />
        <path
            d="M32.4996 7.85049C32.7724 7.85049 32.9934 7.62942 32.9934 7.3567C32.9934 7.08399 32.7724 6.86292 32.4996 6.86292C32.2269 6.86292 32.0059 7.08399 32.0059 7.3567C32.0059 7.62942 32.2269 7.85049 32.4996 7.85049Z"
            fill="#0080FF" />
        <path
            d="M33.7204 9.48978C33.9931 9.48978 34.2141 9.2687 34.2141 8.99599C34.2141 8.72327 33.9931 8.5022 33.7204 8.5022C33.4476 8.5022 33.2266 8.72327 33.2266 8.99599C33.2266 9.2687 33.4476 9.48978 33.7204 9.48978Z"
            fill="#0080FF" />
        <path
            d="M31.8707 12.6455C32.1435 12.6455 32.3645 12.4245 32.3645 12.1517C32.3645 11.879 32.1435 11.658 31.8707 11.658C31.598 11.658 31.377 11.879 31.377 12.1517C31.377 12.4245 31.598 12.6455 31.8707 12.6455Z"
            fill="#0080FF" />
        <path
            d="M30.6198 13.6707C30.8925 13.6707 31.1136 13.4496 31.1136 13.1769C31.1136 12.9042 30.8925 12.6831 30.6198 12.6831C30.3471 12.6831 30.126 12.9042 30.126 13.1769C30.126 13.4496 30.3471 13.6707 30.6198 13.6707Z"
            fill="#0080FF" />
        <path
            d="M36.7184 14.2773C36.9911 14.2773 37.2122 14.0562 37.2122 13.7835C37.2122 13.5108 36.9911 13.2897 36.7184 13.2897C36.4457 13.2897 36.2246 13.5108 36.2246 13.7835C36.2246 14.0562 36.4457 14.2773 36.7184 14.2773Z"
            fill="#0080FF" />
        <path
            d="M27.9806 10.2267C28.2533 10.2267 28.4744 10.0056 28.4744 9.73293C28.4744 9.46021 28.2533 9.23914 27.9806 9.23914C27.7079 9.23914 27.4868 9.46021 27.4868 9.73293C27.4868 10.0056 27.7079 10.2267 27.9806 10.2267Z"
            fill="#0080FF" />
        <path
            d="M35.4152 19.1349C35.6879 19.1349 35.909 18.9138 35.909 18.6411C35.909 18.3684 35.6879 18.1473 35.4152 18.1473C35.1425 18.1473 34.9214 18.3684 34.9214 18.6411C34.9214 18.9138 35.1425 19.1349 35.4152 19.1349Z"
            fill="#0080FF" />
        <path
            d="M35.9113 16.7036C36.184 16.7036 36.4051 16.4826 36.4051 16.2099C36.4051 15.9371 36.184 15.7161 35.9113 15.7161C35.6386 15.7161 35.4175 15.9371 35.4175 16.2099C35.4175 16.4826 35.6386 16.7036 35.9113 16.7036Z"
            fill="#0080FF" />
        <path
            d="M34.2946 17.9193C34.5673 17.9193 34.7884 17.6983 34.7884 17.4256C34.7884 17.1528 34.5673 16.9318 34.2946 16.9318C34.0219 16.9318 33.8008 17.1528 33.8008 17.4256C33.8008 17.6983 34.0219 17.9193 34.2946 17.9193Z"
            fill="#0080FF" />
        <path
            d="M33.5553 16.7036C33.828 16.7036 34.0491 16.4826 34.0491 16.2099C34.0491 15.9371 33.828 15.7161 33.5553 15.7161C33.2826 15.7161 33.0615 15.9371 33.0615 16.2099C33.0615 16.4826 33.2826 16.7036 33.5553 16.7036Z"
            fill="#0080FF" />
        <path
            d="M26.6647 0.696777V15.721C26.6647 15.721 21.7443 16.2223 18.942 17.0545C16.1397 17.8867 13.2196 20.0473 13.2196 20.0473L3.09562 15.2849V24.8097C3.09562 25.8449 2.17822 25.8449 2.17822 25.1957V12.4926L26.6647 0.696777Z"
            fill="#0178EF" />
        <path
            d="M13.2772 21.1302C13.2772 21.1302 16.0344 19.0121 19.0573 18.2702C22.0802 17.5283 22.1453 17.4756 23.8598 17.2977C25.5743 17.1197 26.6621 17.047 26.6621 17.047V27.4065C26.6621 27.4065 21.5713 27.8201 19.0548 28.7375C16.5382 29.6549 13.0391 31.5975 13.0391 31.5975L13.2772 21.1302Z"
            fill="#0178EF" />
        <path d="M0 13.5203L1.915 14.6257V12.4149L0 13.5203Z" fill="#007AF2" />
    </g>
    <defs>
        <clipPath id="clip0_797_171824">
            <rect width="180" height="32.2868" fill="white" />
        </clipPath>
    </defs>
</svg>
